<svg width="166" height="166" viewBox="0 0 166 166" fill="none" xmlns="http://www.w3.org/2000/svg">
<path d="M116.61 29.3637C117.379 29.6601 118.147 29.9566 118.939 30.262C130.164 34.8957 140.999 45.1865 145.683 55.8789C146.986 60.2705 147.326 64.8673 146.419 69.3571C142.996 71.5004 142.105 71.6085 138.167 71.6174C137.127 71.6245 136.086 71.6316 135.014 71.6389C133.874 71.6364 132.734 71.6339 131.56 71.6314C130.358 71.6365 129.157 71.6416 127.919 71.6469C123.937 71.6608 119.956 71.6598 115.974 71.6575C113.215 71.6614 110.456 71.6657 107.697 71.6705C101.911 71.678 96.1248 71.6778 90.3389 71.6724C83.645 71.6663 76.9513 71.6787 70.2575 71.7C63.8223 71.7197 57.3872 71.7227 50.9519 71.7192C48.2111 71.7197 45.4702 71.725 42.7294 71.735C38.9057 71.7473 35.0825 71.7407 31.2588 71.729C30.1167 71.7367 28.9746 71.7443 27.7979 71.7522C26.7605 71.7452 25.7231 71.7382 24.6542 71.7309C23.2974 71.7312 23.2974 71.7312 21.9131 71.7314C20.8332 71.546 20.8332 71.546 19.7314 71.3568C17.0504 67.58 16.9799 64.7235 17.6022 60.3586C21.1361 47.9971 30.7638 37.9879 42.2585 31.4493C66.1536 19.5581 92.0515 18.9206 116.61 29.3637Z" fill="#1C1C1C"/>
<path d="M24.6542 120.094C25.6916 120.089 26.729 120.083 27.7978 120.077C28.9399 120.081 30.082 120.085 31.2587 120.09C32.4584 120.086 33.6581 120.083 34.8941 120.079C38.8765 120.07 42.8588 120.076 46.8412 120.083C49.5993 120.081 52.3573 120.079 55.1154 120.077C60.9032 120.074 66.6909 120.078 72.4787 120.088C79.1719 120.099 85.865 120.095 92.5582 120.084C98.9928 120.074 105.427 120.075 111.862 120.081C114.602 120.082 117.342 120.08 120.082 120.076C123.908 120.071 127.734 120.078 131.56 120.09C133.27 120.084 133.27 120.084 135.014 120.077C136.575 120.086 136.575 120.086 138.167 120.094C139.524 120.096 139.524 120.096 140.909 120.097C143.225 120.348 143.225 120.348 146.419 122.348C147.373 126.432 147.245 130.623 145.408 134.455C142.741 138.154 140.11 140.403 135.773 142.345C132.322 142.796 128.896 142.775 125.416 142.765C124.379 142.773 123.341 142.782 122.272 142.79C118.846 142.814 115.42 142.815 111.994 142.813C109.609 142.821 107.223 142.828 104.838 142.836C99.8391 142.85 94.8402 142.851 89.8411 142.846C83.4413 142.84 77.0424 142.87 70.6428 142.911C65.7164 142.937 60.7902 142.939 55.8637 142.936C53.5046 142.938 51.1455 142.947 48.7865 142.965C45.4838 142.987 42.1828 142.977 38.8801 142.96C37.9098 142.973 36.9395 142.986 35.9399 143C29.1948 142.917 25.9049 141.505 20.7959 137.346C17.077 133.402 17.2578 129.596 17.2819 124.555C17.9232 120.136 20.5409 120.098 24.6542 120.094Z" fill="#1C1C1C"/>
<path d="M130.516 98.102C131.587 98.0814 132.658 98.0608 133.762 98.0395C134.789 98.0344 135.816 98.0292 136.875 98.0239C137.812 98.0146 138.749 98.0052 139.715 97.9956C142.667 98.4259 143.59 99.1238 145.354 101.351C145.853 103.91 145.853 103.91 145.886 106.788C145.919 107.735 145.952 108.683 145.986 109.659C145.354 112.35 145.354 112.35 143.358 114.486C138.519 117.196 134.282 116.901 128.744 116.851C127.04 116.859 127.04 116.859 125.301 116.867C121.549 116.88 117.797 116.863 114.044 116.845C111.436 116.845 108.828 116.847 106.221 116.849C100.757 116.851 95.2937 116.838 89.8301 116.816C82.8216 116.787 75.8135 116.79 68.805 116.803C63.4211 116.81 58.0374 116.802 52.6536 116.789C50.069 116.785 47.4845 116.784 44.8999 116.788C41.2909 116.791 37.6826 116.775 34.0737 116.753C33.0024 116.758 31.931 116.762 30.8272 116.767C29.8437 116.757 28.8602 116.747 27.8469 116.737C26.9941 116.734 26.1414 116.732 25.2628 116.729C22.31 116.249 20.8238 115.278 18.6664 113.35C18.4003 110.662 18.4003 110.662 18.6664 108.35C19.3855 108.085 20.1046 107.819 20.8455 107.546C21.7952 107.193 22.7448 106.839 23.7233 106.476C25.1313 105.954 25.1313 105.954 26.5677 105.421C29.236 104.428 29.236 104.428 31.3876 103.32C41.5369 98.8172 53.5539 99.0388 64.5108 98.9769C65.7645 98.9632 67.0182 98.9495 68.3099 98.9354C75.8276 98.9729 81.2481 99.1975 86.8508 104.359C87.4491 105.057 88.0474 105.756 88.6639 106.476C91.0706 109.364 91.0706 109.364 94.2531 111.35C97.8495 111.494 100.4 111.425 103.834 110.35C104.562 109.025 105.269 107.691 105.964 106.351C107.885 104.464 107.885 104.464 110.089 102.664C110.811 102.062 111.533 101.46 112.276 100.84C117.56 97.2729 124.283 98.1321 130.516 98.102Z" fill="#1C1C1C"/>
<path d="M13.3435 71.3564C13.9803 71.6658 14.617 71.9751 15.2731 72.2938C19.0737 74.0275 21.9508 74.4738 26.1223 74.4358C27.2224 74.4285 28.3224 74.4212 29.4558 74.4137C30.6621 74.4007 31.8683 74.3877 33.1111 74.3743C35.7451 74.3546 38.3791 74.335 41.0131 74.3154C42.4126 74.3031 43.812 74.2909 45.2539 74.2783C49.6244 74.2409 53.9949 74.2165 58.3655 74.1953C59.1032 74.1917 59.8408 74.188 60.6009 74.1843C62.1092 74.1769 63.6175 74.1695 65.1258 74.1622C75.3007 74.1122 85.4752 74.0539 95.6497 73.9583C102.514 73.8939 109.378 73.8507 116.242 73.8322C119.875 73.8215 123.506 73.7998 127.138 73.7522C131.189 73.7042 135.238 73.6931 139.288 73.6908C141.095 73.6561 141.095 73.6561 142.937 73.6207C146.007 73.6396 148.752 73.7023 151.742 74.356C154.662 77.2525 154.662 77.2525 156 80.355C155.801 82.6543 155.601 83.729 153.871 85.3541C152.048 85.1823 150.229 84.9661 148.415 84.7292C142.663 84.1548 139.808 85.0077 134.708 87.3538C131.343 87.0905 130.164 86.1754 127.256 84.3543C122.559 84.4391 119.695 85.223 116.077 87.9162C113.212 89.9903 112.207 90.3763 108.426 90.9782C104.899 90.3533 104.899 90.3533 102.504 87.9787C101.582 86.6795 101.582 86.6795 100.641 85.3541C97.095 83.1341 96.2358 82.6524 92.124 83.3545C90.9816 84.3206 89.8763 85.3258 88.7971 86.354C85.5433 89.1569 83.2975 89.8746 78.883 90.0409C73.6143 89.7897 70.4916 88.3086 66.2533 85.4908C64.4034 84.1968 64.4034 84.1968 61.7163 83.6669C58.7776 84.4454 57.7833 85.4049 55.5949 87.3538C52.8801 89.6822 51.1232 90.8451 47.4107 91.0407C43.1225 90.753 40.7382 88.926 37.4509 86.4868C35.6079 85.1395 35.6079 85.1395 32.5729 84.7292C28.6315 85.4847 26.2459 87.1411 22.9499 89.2285C19.6343 90.9597 17.0271 90.896 13.3435 90.3533C11.2808 89.291 11.2808 89.291 10.1497 87.3538C9.9501 83.6669 9.9501 83.6669 10.1497 80.355C10.8523 80.025 11.555 79.6951 12.2789 79.3551C12.0593 78.4065 11.8398 77.4579 11.6135 76.4806C11.4818 75.4495 11.35 74.4184 11.2143 73.3561C11.9169 72.6962 12.6196 72.0363 13.3435 71.3564Z" fill="#1C1C1C"/>
<path d="M94.4527 85.7295C97.9919 86.4681 98.6213 87.3624 100.973 89.8538C103.586 92.4614 105.218 93.916 109.091 94.1656C113.7 93.8049 116.514 91.5156 119.849 88.6665C122.515 86.9875 124.106 86.9669 127.256 87.3542C128.31 88.3441 128.31 88.3441 129.385 89.3539C134.974 89.7968 134.974 89.7968 140.164 88.2916C142.16 87.3542 142.16 87.3542 145.221 87.2917C149.93 88.7953 152.413 91.3719 154.935 95.3529C155.534 98.6024 155.534 98.6024 154.935 101.352C153.472 103.227 153.472 103.227 151.742 104.351C151.039 104.351 150.336 104.351 149.612 104.351C149.195 103.423 148.778 102.495 148.348 101.539C146.127 97.8704 145.172 97.0323 141.096 95.3529C137.451 94.8929 133.856 94.8889 130.183 94.9155C129.221 94.8955 128.259 94.8755 127.268 94.8549C118.807 94.8607 112.412 96.6219 106.043 101.965C105.204 102.856 104.366 103.746 103.502 104.664C100.919 107.402 100.919 107.402 98.5115 109.351C96.3241 109.417 96.3241 109.417 94.2531 108.351C92.0477 106.207 90.144 103.917 88.1774 101.578C81.9132 95.8657 75.127 95.8652 66.8396 95.9778C65.2316 95.9919 65.2316 95.9919 63.591 96.0064C50.5393 96.2486 36.4156 96.6943 25.0624 103.363C22.3849 104.601 20.5503 104.667 17.6019 104.351C16.8992 103.692 16.1966 103.032 15.4727 102.352C15.8178 98.5433 16.3838 96.569 18.6665 93.3532C21.1284 92.3062 23.6153 91.3101 26.1187 90.3537C27.0628 89.7763 28.007 89.1989 28.9798 88.604C31.4417 87.3542 31.4417 87.3542 33.5043 87.3542C35.7001 88.3541 35.7001 88.3541 38.6277 90.9161C41.8567 93.5505 44.2857 94.038 48.5169 93.7868C52.9336 92.8696 56.0033 90.2826 59.1213 87.3542C62.9909 86.7485 64.3843 87.3193 67.7712 89.2914C68.7812 89.9719 69.7912 90.6524 70.8319 91.3536C76.4325 93.1069 82.4266 93.2759 87.8655 91.0411C90.4395 89.0015 91.1523 86.6151 94.4527 85.7295Z" fill="#1C1C1C"/>
</svg>
